<?xml version="1.0"?>
<svg xmlns:rdf="http://www.w3.org/1999/02/22-rdf-syntax-ns#" xmlns="http://www.w3.org/2000/svg" xmlns:cc="http://creativecommons.org/ns#" xmlns:dc="http://purl.org/dc/elements/1.1/" xmlns:svg="http://www.w3.org/2000/svg" id="svg7594" viewBox="0 0 24 38" version="1.0">
  <g id="layer1">
    <g id="g10408" fill-rule="evenodd">
      <path id="path11771" d="m2 31.5l10 5v-25l-10-5v25z" fill="#edd400"/>
      <path id="path11773" d="m12 36.5l10-5v-25l-10 5v25z" fill="#fce94f"/>
      <path id="path11775" d="m2 6.5c0-1 9-5 10-5s10 4 10 5-9 5-10 5-10-4-10-5z" fill="#fff"/>
      <path id="path11777" d="m6 6.5c0-1 4.575-3 6-3 1 0 6 2 6 3s-5 3-6 3-6-2-6-3z" fill="#c4a000"/>
      <path id="path11779" d="m12 1c-0.292 0-0.517 0.071-0.875 0.1875s-0.783 0.3021-1.2812 0.5c-0.9974 0.3958-2.2405 0.933-3.4376 1.5-1.197 0.567-2.3661 1.1572-3.25 1.6875-0.4419 0.2651-0.8114 0.5166-1.0937 0.75-0.1411 0.1167-0.2426 0.215-0.3437 0.3438-0.1012 0.1287-0.2188 0.2812-0.2188 0.5312v25c0 0.25 0.1176 0.402 0.2188 0.531 0.1011 0.129 0.2026 0.227 0.3437 0.344 0.2823 0.233 0.6518 0.485 1.0937 0.75 0.8839 0.53 2.053 1.12 3.25 1.687 1.1971 0.568 2.4402 1.105 3.4376 1.5 0.4982 0.198 0.9232 0.384 1.2812 0.5 0.358 0.117 0.583 0.188 0.875 0.188s0.517-0.071 0.875-0.188c0.358-0.116 0.783-0.302 1.281-0.5 0.998-0.395 2.241-0.932 3.438-1.5 1.197-0.567 2.366-1.157 3.25-1.687 0.442-0.265 0.811-0.517 1.094-0.75 0.141-0.117 0.242-0.215 0.343-0.344s0.219-0.281 0.219-0.531v-25c0-0.25-0.118-0.4025-0.219-0.5312-0.101-0.1288-0.202-0.2271-0.343-0.3438-0.283-0.2334-0.652-0.4849-1.094-0.75-0.884-0.5303-2.053-1.1205-3.25-1.6875s-2.44-1.1042-3.438-1.5c-0.498-0.1979-0.923-0.3835-1.281-0.5s-0.583-0.1875-0.875-0.1875zm0 1c-0.042 0 0.237 0.0501 0.562 0.1562 0.326 0.1062 0.765 0.2448 1.25 0.4376 0.972 0.3854 2.166 0.9107 3.344 1.4687s2.322 1.1553 3.156 1.6563c0.418 0.2504 0.755 0.4794 0.969 0.6562 0.107 0.0884 0.188 0.1791 0.219 0.2188v24.812c-0.031 0.04-0.112 0.131-0.219 0.219-0.214 0.177-0.551 0.406-0.969 0.656-0.834 0.501-1.978 1.099-3.156 1.657-1.178 0.557-2.372 1.083-3.344 1.468-0.485 0.193-0.924 0.332-1.25 0.438-0.325 0.106-0.604 0.156-0.562 0.156s-0.237-0.05-0.562-0.156c-0.326-0.106-0.765-0.245-1.25-0.438-0.9719-0.385-2.1663-0.911-3.3442-1.468-1.178-0.558-2.3214-1.156-3.1563-1.657-0.4175-0.25-0.7549-0.479-0.9687-0.656-0.107-0.088-0.1876-0.179-0.2188-0.219v-24.812c0.0312-0.0399 0.1118-0.1306 0.2188-0.219 0.2138-0.1768 0.5512-0.4058 0.9687-0.6562 0.8349-0.501 1.9783-1.0983 3.1563-1.6563 1.1779-0.558 2.3723-1.0833 3.3442-1.4687 0.485-0.1928 0.924-0.3314 1.25-0.4376 0.325-0.1061 0.604-0.1562 0.562-0.1562z"/>
      <path id="path11781" d="m5 28.188v5.124l0.2812 0.126 4 2 0.7188 0.374v-5.124l-0.2812-0.126-4-2-0.7188-0.374zm1 1.624l3 1.5v2.876l-3-1.5v-2.876z"/>
      <path id="path11783" d="m15.5 23.688l-0.719 0.374-2 1-0.281 0.126v4.124l0.719-0.374 2-1 0.281-0.126v-4.124zm-1 1.624v1.876l-1 0.5v-1.876l1-0.5z"/>
      <path id="path11785" d="m15.5 17.688l-0.719 0.374-2 1-0.281 0.126v4.124l0.719-0.374 2-1 0.281-0.126v-4.124zm-1 1.624v1.876l-1 0.5v-1.876l1-0.5z"/>
      <path id="path11787" d="m15.5 11.688l-0.719 0.374-2 1-0.281 0.126v4.124l0.719-0.374 2-1 0.281-0.126v-4.124zm-1 1.624v1.876l-1 0.5v-1.876l1-0.5z"/>
      <path id="path11789" d="m20.5 21.188l-0.719 0.374-2 1-0.281 0.126v4.124l0.719-0.374 2-1 0.281-0.126v-4.124zm-1 1.624v1.876l-1 0.5v-1.876l1-0.5z"/>
      <path id="path11791" d="m20.5 15.188l-0.719 0.374-2 1-0.281 0.126v4.124l0.719-0.374 2-1 0.281-0.126v-4.124zm-1 1.624v1.876l-1 0.5v-1.876l1-0.5z"/>
      <path id="path11793" d="m20.5 9.1875l-0.719 0.375-2 0.9995-0.281 0.126v4.124l0.719-0.374 2-1 0.281-0.126v-4.1245zm-1 1.6245v1.876l-1 0.5v-1.876l1-0.5z"/>
      <path id="path11795" d="m8.5 23.688v4.124l0.2812 0.126 1.9998 1 0.719 0.374v-4.124l-0.281-0.126-2.0002-1-0.7188-0.374zm1 1.624l1 0.5v1.876l-1-0.5v-1.876z"/>
      <path id="path11797" d="m8.5 17.688v4.124l0.2812 0.126 1.9998 1 0.719 0.374v-4.124l-0.281-0.126-2.0002-1-0.7188-0.374zm1 1.624l1 0.5v1.876l-1-0.5v-1.876z"/>
      <path id="path11799" d="m8.5 11.688v4.124l0.2812 0.126 1.9998 1 0.719 0.374v-4.124l-0.281-0.126-2.0002-1-0.7188-0.374zm1 1.624l1 0.5v1.876l-1-0.5v-1.876z"/>
      <path id="path11801" d="m3.5 21.188v4.124l0.2812 0.126 2 1 0.7188 0.374v-4.124l-0.2812-0.126-2-1-0.7188-0.374zm1 1.624l1 0.5v1.876l-1-0.5v-1.876z"/>
      <path id="path11803" d="m3.5 15.188v4.124l0.2812 0.126 2 1 0.7188 0.374v-4.124l-0.2812-0.126-2-1-0.7188-0.374zm1 1.624l1 0.5v1.876l-1-0.5v-1.876z"/>
      <path id="path11805" d="m3.5 9.1875v4.1245l0.2812 0.126 2 1 0.7188 0.374v-4.124l-0.2812-0.126-2-0.9995-0.7188-0.375zm1 1.6245l1 0.5v1.876l-1-0.5v-1.876z"/>
    </g>
  </g>
  <metadata>
    <rdf:RDF>
      <cc:Work>
        <dc:format>image/svg+xml</dc:format>
        <dc:type rdf:resource="http://purl.org/dc/dcmitype/StillImage"/>
        <cc:license rdf:resource="http://creativecommons.org/licenses/publicdomain/"/>
        <dc:publisher>
          <cc:Agent rdf:about="http://openclipart.org/">
            <dc:title>Openclipart</dc:title>
          </cc:Agent>
        </dc:publisher>
        <dc:title>building</dc:title>
        <dc:date>2008-06-09T17:42:37</dc:date>
        <dc:description>appartement, appartement, building, building, clip art, clipart, flat, flat, house, house, image, immeuble, immeuble, maison, maison, media, public domain, svg, </dc:description>
        <dc:source>http://openclipart.org/detail/17329/building-by-jcartier</dc:source>
        <dc:creator>
          <cc:Agent>
            <dc:title>jcartier</dc:title>
          </cc:Agent>
        </dc:creator>
        <dc:subject>
          <rdf:Bag>
            <rdf:li>appartement</rdf:li>
            <rdf:li>building</rdf:li>
            <rdf:li>clip art</rdf:li>
            <rdf:li>clipart</rdf:li>
            <rdf:li>flat</rdf:li>
            <rdf:li>house</rdf:li>
            <rdf:li>image</rdf:li>
            <rdf:li>immeuble</rdf:li>
            <rdf:li>maison</rdf:li>
            <rdf:li>media</rdf:li>
            <rdf:li>public domain</rdf:li>
            <rdf:li>svg</rdf:li>
          </rdf:Bag>
        </dc:subject>
      </cc:Work>
      <cc:License rdf:about="http://creativecommons.org/licenses/publicdomain/">
        <cc:permits rdf:resource="http://creativecommons.org/ns#Reproduction"/>
        <cc:permits rdf:resource="http://creativecommons.org/ns#Distribution"/>
        <cc:permits rdf:resource="http://creativecommons.org/ns#DerivativeWorks"/>
      </cc:License>
    </rdf:RDF>
  </metadata>
</svg>
